<mxfile host="app.diagrams.net" agent="Mozilla/5.0 (Windows NT 10.0; Win64; x64) AppleWebKit/537.36 (KHTML, like Gecko) Chrome/129.0.0.0 Safari/537.36" version="24.7.14">
  <diagram name="Trang-1" id="iIaJ-sZtR6yRwf-U3cXM">
    <mxGraphModel dx="1424" dy="919" grid="0" gridSize="10" guides="1" tooltips="1" connect="1" arrows="1" fold="1" page="0" pageScale="1" pageWidth="827" pageHeight="1169" math="0" shadow="0">
      <root>
        <mxCell id="0" />
        <mxCell id="1" parent="0" />
        <mxCell id="hMvPJYg8ecZ7v7Vzd8cj-63" value="" style="edgeStyle=none;curved=1;rounded=0;orthogonalLoop=1;jettySize=auto;html=1;fontSize=12;startSize=8;endSize=8;" edge="1" parent="1" source="hMvPJYg8ecZ7v7Vzd8cj-1" target="hMvPJYg8ecZ7v7Vzd8cj-25">
          <mxGeometry relative="1" as="geometry" />
        </mxCell>
        <mxCell id="hMvPJYg8ecZ7v7Vzd8cj-64" value="1" style="text;html=1;align=center;verticalAlign=middle;whiteSpace=wrap;rounded=0;fontSize=16;" vertex="1" parent="1">
          <mxGeometry x="110" y="168" width="47" height="21" as="geometry" />
        </mxCell>
        <mxCell id="hMvPJYg8ecZ7v7Vzd8cj-66" value="n" style="text;html=1;align=center;verticalAlign=middle;whiteSpace=wrap;rounded=0;fontSize=16;" vertex="1" parent="1">
          <mxGeometry x="187" y="169" width="45" height="25" as="geometry" />
        </mxCell>
        <mxCell id="hMvPJYg8ecZ7v7Vzd8cj-75" value="" style="group" vertex="1" connectable="0" parent="1">
          <mxGeometry x="69" y="450" width="212" height="359" as="geometry" />
        </mxCell>
        <mxCell id="hMvPJYg8ecZ7v7Vzd8cj-67" value="" style="rounded=0;whiteSpace=wrap;html=1;movable=1;resizable=1;rotatable=1;deletable=1;editable=1;locked=0;connectable=1;" vertex="1" parent="hMvPJYg8ecZ7v7Vzd8cj-75">
          <mxGeometry width="209" height="359" as="geometry" />
        </mxCell>
        <mxCell id="hMvPJYg8ecZ7v7Vzd8cj-68" value="" style="endArrow=none;html=1;rounded=0;fontSize=12;startSize=8;endSize=8;curved=1;exitX=0;exitY=0.25;exitDx=0;exitDy=0;entryX=1;entryY=0.25;entryDx=0;entryDy=0;movable=1;resizable=1;rotatable=1;deletable=1;editable=1;locked=0;connectable=1;" edge="1" parent="hMvPJYg8ecZ7v7Vzd8cj-75" source="hMvPJYg8ecZ7v7Vzd8cj-67" target="hMvPJYg8ecZ7v7Vzd8cj-67">
          <mxGeometry width="50" height="50" relative="1" as="geometry">
            <mxPoint x="96" y="131" as="sourcePoint" />
            <mxPoint x="146" y="81" as="targetPoint" />
          </mxGeometry>
        </mxCell>
        <mxCell id="hMvPJYg8ecZ7v7Vzd8cj-69" value="DonHang" style="text;html=1;align=center;verticalAlign=middle;whiteSpace=wrap;rounded=0;fontSize=16;movable=1;resizable=1;rotatable=1;deletable=1;editable=1;locked=0;connectable=1;" vertex="1" parent="hMvPJYg8ecZ7v7Vzd8cj-75">
          <mxGeometry x="83" y="21" width="60" height="30" as="geometry" />
        </mxCell>
        <mxCell id="hMvPJYg8ecZ7v7Vzd8cj-70" value="DonHangID(PK)" style="text;html=1;align=center;verticalAlign=middle;whiteSpace=wrap;rounded=0;fontSize=16;movable=1;resizable=1;rotatable=1;deletable=1;editable=1;locked=0;connectable=1;" vertex="1" parent="hMvPJYg8ecZ7v7Vzd8cj-75">
          <mxGeometry x="1" y="87" width="207" height="33" as="geometry" />
        </mxCell>
        <mxCell id="hMvPJYg8ecZ7v7Vzd8cj-71" value="NgayDat" style="text;html=1;align=center;verticalAlign=middle;whiteSpace=wrap;rounded=0;fontSize=16;movable=1;resizable=1;rotatable=1;deletable=1;editable=1;locked=0;connectable=1;" vertex="1" parent="hMvPJYg8ecZ7v7Vzd8cj-75">
          <mxGeometry x="1" y="120" width="207" height="33" as="geometry" />
        </mxCell>
        <mxCell id="hMvPJYg8ecZ7v7Vzd8cj-72" value="NguoiDatHangID(FK)" style="text;html=1;align=center;verticalAlign=middle;whiteSpace=wrap;rounded=0;fontSize=16;movable=1;resizable=1;rotatable=1;deletable=1;editable=1;locked=0;connectable=1;" vertex="1" parent="hMvPJYg8ecZ7v7Vzd8cj-75">
          <mxGeometry x="5" y="153" width="207" height="33" as="geometry" />
        </mxCell>
        <mxCell id="hMvPJYg8ecZ7v7Vzd8cj-73" value="Role" style="text;html=1;align=center;verticalAlign=middle;whiteSpace=wrap;rounded=0;fontSize=16;movable=1;resizable=1;rotatable=1;deletable=1;editable=1;locked=0;connectable=1;" vertex="1" parent="hMvPJYg8ecZ7v7Vzd8cj-75">
          <mxGeometry x="4" y="186" width="207" height="33" as="geometry" />
        </mxCell>
        <mxCell id="hMvPJYg8ecZ7v7Vzd8cj-74" value="TongTien" style="text;html=1;align=center;verticalAlign=middle;whiteSpace=wrap;rounded=0;fontSize=16;movable=1;resizable=1;rotatable=1;deletable=1;editable=1;locked=0;connectable=1;" vertex="1" parent="hMvPJYg8ecZ7v7Vzd8cj-75">
          <mxGeometry x="4" y="219" width="207" height="33" as="geometry" />
        </mxCell>
        <mxCell id="hMvPJYg8ecZ7v7Vzd8cj-76" value="" style="group" vertex="1" connectable="0" parent="1">
          <mxGeometry x="-259" y="447" width="211" height="359" as="geometry" />
        </mxCell>
        <mxCell id="hMvPJYg8ecZ7v7Vzd8cj-51" value="" style="rounded=0;whiteSpace=wrap;html=1;" vertex="1" parent="hMvPJYg8ecZ7v7Vzd8cj-76">
          <mxGeometry x="2" width="209" height="359" as="geometry" />
        </mxCell>
        <mxCell id="hMvPJYg8ecZ7v7Vzd8cj-52" value="" style="endArrow=none;html=1;rounded=0;fontSize=12;startSize=8;endSize=8;curved=1;exitX=0;exitY=0.25;exitDx=0;exitDy=0;entryX=1;entryY=0.25;entryDx=0;entryDy=0;" edge="1" source="hMvPJYg8ecZ7v7Vzd8cj-51" target="hMvPJYg8ecZ7v7Vzd8cj-51" parent="hMvPJYg8ecZ7v7Vzd8cj-76">
          <mxGeometry width="50" height="50" relative="1" as="geometry">
            <mxPoint x="95" y="134" as="sourcePoint" />
            <mxPoint x="145" y="84" as="targetPoint" />
          </mxGeometry>
        </mxCell>
        <mxCell id="hMvPJYg8ecZ7v7Vzd8cj-53" value="HoaDon" style="text;html=1;align=center;verticalAlign=middle;whiteSpace=wrap;rounded=0;fontSize=16;" vertex="1" parent="hMvPJYg8ecZ7v7Vzd8cj-76">
          <mxGeometry x="82" y="24" width="60" height="30" as="geometry" />
        </mxCell>
        <mxCell id="hMvPJYg8ecZ7v7Vzd8cj-54" value="HoaDonID(PK)" style="text;html=1;align=center;verticalAlign=middle;whiteSpace=wrap;rounded=0;fontSize=16;" vertex="1" parent="hMvPJYg8ecZ7v7Vzd8cj-76">
          <mxGeometry y="90" width="207" height="33" as="geometry" />
        </mxCell>
        <mxCell id="hMvPJYg8ecZ7v7Vzd8cj-55" value="DonHangID(FK)" style="text;html=1;align=center;verticalAlign=middle;whiteSpace=wrap;rounded=0;fontSize=16;" vertex="1" parent="hMvPJYg8ecZ7v7Vzd8cj-76">
          <mxGeometry y="123" width="207" height="33" as="geometry" />
        </mxCell>
        <mxCell id="hMvPJYg8ecZ7v7Vzd8cj-56" value="NgayThanhToan" style="text;html=1;align=center;verticalAlign=middle;whiteSpace=wrap;rounded=0;fontSize=16;" vertex="1" parent="hMvPJYg8ecZ7v7Vzd8cj-76">
          <mxGeometry x="4" y="156" width="207" height="33" as="geometry" />
        </mxCell>
        <mxCell id="hMvPJYg8ecZ7v7Vzd8cj-57" value="SoTien" style="text;html=1;align=center;verticalAlign=middle;whiteSpace=wrap;rounded=0;fontSize=16;" vertex="1" parent="hMvPJYg8ecZ7v7Vzd8cj-76">
          <mxGeometry x="3" y="189" width="207" height="33" as="geometry" />
        </mxCell>
        <mxCell id="hMvPJYg8ecZ7v7Vzd8cj-77" value="" style="group" vertex="1" connectable="0" parent="1">
          <mxGeometry x="445" y="442" width="211" height="359" as="geometry" />
        </mxCell>
        <mxCell id="hMvPJYg8ecZ7v7Vzd8cj-31" value="" style="rounded=0;whiteSpace=wrap;html=1;" vertex="1" parent="hMvPJYg8ecZ7v7Vzd8cj-77">
          <mxGeometry x="2" width="209" height="359" as="geometry" />
        </mxCell>
        <mxCell id="hMvPJYg8ecZ7v7Vzd8cj-32" value="" style="endArrow=none;html=1;rounded=0;fontSize=12;startSize=8;endSize=8;curved=1;exitX=0;exitY=0.25;exitDx=0;exitDy=0;entryX=1;entryY=0.25;entryDx=0;entryDy=0;" edge="1" source="hMvPJYg8ecZ7v7Vzd8cj-31" target="hMvPJYg8ecZ7v7Vzd8cj-31" parent="hMvPJYg8ecZ7v7Vzd8cj-77">
          <mxGeometry width="50" height="50" relative="1" as="geometry">
            <mxPoint x="95" y="134" as="sourcePoint" />
            <mxPoint x="145" y="84" as="targetPoint" />
          </mxGeometry>
        </mxCell>
        <mxCell id="hMvPJYg8ecZ7v7Vzd8cj-33" value="MonAn" style="text;html=1;align=center;verticalAlign=middle;whiteSpace=wrap;rounded=0;fontSize=16;" vertex="1" parent="hMvPJYg8ecZ7v7Vzd8cj-77">
          <mxGeometry x="82" y="24" width="60" height="30" as="geometry" />
        </mxCell>
        <mxCell id="hMvPJYg8ecZ7v7Vzd8cj-34" value="MonAnID(PK)" style="text;html=1;align=center;verticalAlign=middle;whiteSpace=wrap;rounded=0;fontSize=16;" vertex="1" parent="hMvPJYg8ecZ7v7Vzd8cj-77">
          <mxGeometry y="90" width="207" height="33" as="geometry" />
        </mxCell>
        <mxCell id="hMvPJYg8ecZ7v7Vzd8cj-35" value="TenMonAn" style="text;html=1;align=center;verticalAlign=middle;whiteSpace=wrap;rounded=0;fontSize=16;" vertex="1" parent="hMvPJYg8ecZ7v7Vzd8cj-77">
          <mxGeometry y="123" width="207" height="33" as="geometry" />
        </mxCell>
        <mxCell id="hMvPJYg8ecZ7v7Vzd8cj-36" value="Gia" style="text;html=1;align=center;verticalAlign=middle;whiteSpace=wrap;rounded=0;fontSize=16;" vertex="1" parent="hMvPJYg8ecZ7v7Vzd8cj-77">
          <mxGeometry x="4" y="156" width="207" height="33" as="geometry" />
        </mxCell>
        <mxCell id="hMvPJYg8ecZ7v7Vzd8cj-37" value="MoTa" style="text;html=1;align=center;verticalAlign=middle;whiteSpace=wrap;rounded=0;fontSize=16;" vertex="1" parent="hMvPJYg8ecZ7v7Vzd8cj-77">
          <mxGeometry x="3" y="189" width="207" height="33" as="geometry" />
        </mxCell>
        <mxCell id="hMvPJYg8ecZ7v7Vzd8cj-78" value="" style="group" vertex="1" connectable="0" parent="1">
          <mxGeometry x="221" y="-7" width="213" height="359" as="geometry" />
        </mxCell>
        <mxCell id="hMvPJYg8ecZ7v7Vzd8cj-3" value="" style="rounded=0;whiteSpace=wrap;html=1;" vertex="1" parent="hMvPJYg8ecZ7v7Vzd8cj-78">
          <mxGeometry x="4" width="209" height="359" as="geometry" />
        </mxCell>
        <mxCell id="hMvPJYg8ecZ7v7Vzd8cj-4" value="" style="endArrow=none;html=1;rounded=0;fontSize=12;startSize=8;endSize=8;curved=1;exitX=0;exitY=0.25;exitDx=0;exitDy=0;entryX=1;entryY=0.25;entryDx=0;entryDy=0;" edge="1" source="hMvPJYg8ecZ7v7Vzd8cj-3" target="hMvPJYg8ecZ7v7Vzd8cj-3" parent="hMvPJYg8ecZ7v7Vzd8cj-78">
          <mxGeometry width="50" height="50" relative="1" as="geometry">
            <mxPoint x="95" y="141" as="sourcePoint" />
            <mxPoint x="145" y="91" as="targetPoint" />
          </mxGeometry>
        </mxCell>
        <mxCell id="hMvPJYg8ecZ7v7Vzd8cj-7" value="NhanVien" style="text;html=1;align=center;verticalAlign=middle;whiteSpace=wrap;rounded=0;fontSize=16;" vertex="1" parent="hMvPJYg8ecZ7v7Vzd8cj-78">
          <mxGeometry x="82" y="31" width="60" height="30" as="geometry" />
        </mxCell>
        <mxCell id="hMvPJYg8ecZ7v7Vzd8cj-22" value="NhanVienID(PK)" style="text;html=1;align=center;verticalAlign=middle;whiteSpace=wrap;rounded=0;fontSize=16;" vertex="1" parent="hMvPJYg8ecZ7v7Vzd8cj-78">
          <mxGeometry y="97" width="207" height="33" as="geometry" />
        </mxCell>
        <mxCell id="hMvPJYg8ecZ7v7Vzd8cj-23" value="Username" style="text;html=1;align=center;verticalAlign=middle;whiteSpace=wrap;rounded=0;fontSize=16;" vertex="1" parent="hMvPJYg8ecZ7v7Vzd8cj-78">
          <mxGeometry y="130" width="207" height="33" as="geometry" />
        </mxCell>
        <mxCell id="hMvPJYg8ecZ7v7Vzd8cj-24" value="Password" style="text;html=1;align=center;verticalAlign=middle;whiteSpace=wrap;rounded=0;fontSize=16;" vertex="1" parent="hMvPJYg8ecZ7v7Vzd8cj-78">
          <mxGeometry x="4" y="163" width="207" height="33" as="geometry" />
        </mxCell>
        <mxCell id="hMvPJYg8ecZ7v7Vzd8cj-25" value="HoVaTen" style="text;html=1;align=center;verticalAlign=middle;whiteSpace=wrap;rounded=0;fontSize=16;" vertex="1" parent="hMvPJYg8ecZ7v7Vzd8cj-78">
          <mxGeometry x="3" y="196" width="207" height="33" as="geometry" />
        </mxCell>
        <mxCell id="hMvPJYg8ecZ7v7Vzd8cj-26" value="DiaChi" style="text;html=1;align=center;verticalAlign=middle;whiteSpace=wrap;rounded=0;fontSize=16;" vertex="1" parent="hMvPJYg8ecZ7v7Vzd8cj-78">
          <mxGeometry x="3" y="229" width="207" height="33" as="geometry" />
        </mxCell>
        <mxCell id="hMvPJYg8ecZ7v7Vzd8cj-27" value="SoDienThoai" style="text;html=1;align=center;verticalAlign=middle;whiteSpace=wrap;rounded=0;fontSize=16;" vertex="1" parent="hMvPJYg8ecZ7v7Vzd8cj-78">
          <mxGeometry x="3" y="262" width="207" height="33" as="geometry" />
        </mxCell>
        <mxCell id="hMvPJYg8ecZ7v7Vzd8cj-102" value="Role" style="text;html=1;align=center;verticalAlign=middle;whiteSpace=wrap;rounded=0;fontSize=16;" vertex="1" parent="hMvPJYg8ecZ7v7Vzd8cj-78">
          <mxGeometry x="3" y="295" width="207" height="33" as="geometry" />
        </mxCell>
        <mxCell id="hMvPJYg8ecZ7v7Vzd8cj-79" value="" style="group" vertex="1" connectable="0" parent="1">
          <mxGeometry x="-88" width="209" height="359" as="geometry" />
        </mxCell>
        <mxCell id="hMvPJYg8ecZ7v7Vzd8cj-1" value="" style="rounded=0;whiteSpace=wrap;html=1;" vertex="1" parent="hMvPJYg8ecZ7v7Vzd8cj-79">
          <mxGeometry width="209" height="359" as="geometry" />
        </mxCell>
        <mxCell id="hMvPJYg8ecZ7v7Vzd8cj-2" value="" style="endArrow=none;html=1;rounded=0;fontSize=12;startSize=8;endSize=8;curved=1;exitX=0;exitY=0.25;exitDx=0;exitDy=0;entryX=1;entryY=0.25;entryDx=0;entryDy=0;" edge="1" parent="hMvPJYg8ecZ7v7Vzd8cj-79" source="hMvPJYg8ecZ7v7Vzd8cj-1" target="hMvPJYg8ecZ7v7Vzd8cj-1">
          <mxGeometry width="50" height="50" relative="1" as="geometry">
            <mxPoint x="87" y="134" as="sourcePoint" />
            <mxPoint x="137" y="84" as="targetPoint" />
          </mxGeometry>
        </mxCell>
        <mxCell id="hMvPJYg8ecZ7v7Vzd8cj-5" value="Admin" style="text;html=1;align=center;verticalAlign=middle;whiteSpace=wrap;rounded=0;fontSize=16;" vertex="1" parent="hMvPJYg8ecZ7v7Vzd8cj-79">
          <mxGeometry x="71" y="28" width="60" height="30" as="geometry" />
        </mxCell>
        <mxCell id="hMvPJYg8ecZ7v7Vzd8cj-17" value="AdminID(PK)" style="text;html=1;align=center;verticalAlign=middle;whiteSpace=wrap;rounded=0;fontSize=16;" vertex="1" parent="hMvPJYg8ecZ7v7Vzd8cj-79">
          <mxGeometry x="1" y="96" width="207" height="33" as="geometry" />
        </mxCell>
        <mxCell id="hMvPJYg8ecZ7v7Vzd8cj-20" value="Username" style="text;html=1;align=center;verticalAlign=middle;whiteSpace=wrap;rounded=0;fontSize=16;" vertex="1" parent="hMvPJYg8ecZ7v7Vzd8cj-79">
          <mxGeometry x="1" y="129" width="207" height="33" as="geometry" />
        </mxCell>
        <mxCell id="hMvPJYg8ecZ7v7Vzd8cj-21" value="Password" style="text;html=1;align=center;verticalAlign=middle;whiteSpace=wrap;rounded=0;fontSize=16;" vertex="1" parent="hMvPJYg8ecZ7v7Vzd8cj-79">
          <mxGeometry x="1" y="169" width="207" height="33" as="geometry" />
        </mxCell>
        <mxCell id="hMvPJYg8ecZ7v7Vzd8cj-59" value="HoVaTen" style="text;html=1;align=center;verticalAlign=middle;whiteSpace=wrap;rounded=0;fontSize=16;" vertex="1" parent="hMvPJYg8ecZ7v7Vzd8cj-79">
          <mxGeometry y="202" width="207" height="33" as="geometry" />
        </mxCell>
        <mxCell id="hMvPJYg8ecZ7v7Vzd8cj-101" value="Role" style="text;html=1;align=center;verticalAlign=middle;whiteSpace=wrap;rounded=0;fontSize=16;" vertex="1" parent="hMvPJYg8ecZ7v7Vzd8cj-79">
          <mxGeometry x="1" y="232" width="207" height="33" as="geometry" />
        </mxCell>
        <mxCell id="hMvPJYg8ecZ7v7Vzd8cj-86" value="" style="endArrow=classic;html=1;rounded=0;fontSize=12;startSize=8;endSize=8;curved=1;exitX=0.5;exitY=1;exitDx=0;exitDy=0;entryX=0.5;entryY=0;entryDx=0;entryDy=0;" edge="1" parent="1" source="hMvPJYg8ecZ7v7Vzd8cj-3" target="hMvPJYg8ecZ7v7Vzd8cj-67">
          <mxGeometry width="50" height="50" relative="1" as="geometry">
            <mxPoint x="348" y="516" as="sourcePoint" />
            <mxPoint x="398" y="466" as="targetPoint" />
          </mxGeometry>
        </mxCell>
        <mxCell id="hMvPJYg8ecZ7v7Vzd8cj-87" value="" style="endArrow=classic;html=1;rounded=0;fontSize=12;startSize=8;endSize=8;curved=1;exitX=0.5;exitY=1;exitDx=0;exitDy=0;entryX=0.5;entryY=0;entryDx=0;entryDy=0;" edge="1" parent="1" source="hMvPJYg8ecZ7v7Vzd8cj-1" target="hMvPJYg8ecZ7v7Vzd8cj-67">
          <mxGeometry width="50" height="50" relative="1" as="geometry">
            <mxPoint x="340" y="362" as="sourcePoint" />
            <mxPoint x="206" y="444" as="targetPoint" />
          </mxGeometry>
        </mxCell>
        <mxCell id="hMvPJYg8ecZ7v7Vzd8cj-90" value="1" style="text;html=1;align=center;verticalAlign=middle;whiteSpace=wrap;rounded=0;fontSize=16;" vertex="1" parent="1">
          <mxGeometry x="-5" y="362" width="43" height="30" as="geometry" />
        </mxCell>
        <mxCell id="hMvPJYg8ecZ7v7Vzd8cj-91" value="n" style="text;html=1;align=center;verticalAlign=middle;whiteSpace=wrap;rounded=0;fontSize=16;" vertex="1" parent="1">
          <mxGeometry x="97" y="420" width="43" height="30" as="geometry" />
        </mxCell>
        <mxCell id="hMvPJYg8ecZ7v7Vzd8cj-92" value="1" style="text;html=1;align=center;verticalAlign=middle;whiteSpace=wrap;rounded=0;fontSize=16;" vertex="1" parent="1">
          <mxGeometry x="314" y="352" width="43" height="30" as="geometry" />
        </mxCell>
        <mxCell id="hMvPJYg8ecZ7v7Vzd8cj-93" value="n" style="text;html=1;align=center;verticalAlign=middle;whiteSpace=wrap;rounded=0;fontSize=16;" vertex="1" parent="1">
          <mxGeometry x="210" y="424" width="43" height="30" as="geometry" />
        </mxCell>
        <mxCell id="hMvPJYg8ecZ7v7Vzd8cj-94" value="n" style="text;html=1;align=center;verticalAlign=middle;whiteSpace=wrap;rounded=0;fontSize=16;" vertex="1" parent="1">
          <mxGeometry x="408" y="602" width="43" height="30" as="geometry" />
        </mxCell>
        <mxCell id="hMvPJYg8ecZ7v7Vzd8cj-95" value="1" style="text;html=1;align=center;verticalAlign=middle;whiteSpace=wrap;rounded=0;fontSize=16;" vertex="1" parent="1">
          <mxGeometry x="32" y="611.5" width="43" height="30" as="geometry" />
        </mxCell>
        <mxCell id="hMvPJYg8ecZ7v7Vzd8cj-96" value="" style="edgeStyle=none;curved=1;rounded=0;orthogonalLoop=1;jettySize=auto;html=1;fontSize=12;startSize=8;endSize=8;" edge="1" parent="1" source="hMvPJYg8ecZ7v7Vzd8cj-67" target="hMvPJYg8ecZ7v7Vzd8cj-57">
          <mxGeometry relative="1" as="geometry" />
        </mxCell>
        <mxCell id="hMvPJYg8ecZ7v7Vzd8cj-98" value="" style="endArrow=classic;html=1;rounded=0;fontSize=12;startSize=8;endSize=8;curved=1;exitX=1;exitY=0.75;exitDx=0;exitDy=0;entryX=0;entryY=0.25;entryDx=0;entryDy=0;" edge="1" parent="1" source="hMvPJYg8ecZ7v7Vzd8cj-72" target="hMvPJYg8ecZ7v7Vzd8cj-37">
          <mxGeometry width="50" height="50" relative="1" as="geometry">
            <mxPoint x="475" y="660.75" as="sourcePoint" />
            <mxPoint x="360" y="624" as="targetPoint" />
          </mxGeometry>
        </mxCell>
        <mxCell id="hMvPJYg8ecZ7v7Vzd8cj-99" value="1" style="text;html=1;align=center;verticalAlign=middle;whiteSpace=wrap;rounded=0;fontSize=16;" vertex="1" parent="1">
          <mxGeometry x="-56" y="617" width="43" height="30" as="geometry" />
        </mxCell>
        <mxCell id="hMvPJYg8ecZ7v7Vzd8cj-100" value="m" style="text;html=1;align=center;verticalAlign=middle;whiteSpace=wrap;rounded=0;fontSize=16;" vertex="1" parent="1">
          <mxGeometry x="271" y="602" width="43" height="30" as="geometry" />
        </mxCell>
        <mxCell id="hMvPJYg8ecZ7v7Vzd8cj-103" value="" style="group" vertex="1" connectable="0" parent="1">
          <mxGeometry x="-122" y="882" width="211" height="359" as="geometry" />
        </mxCell>
        <mxCell id="hMvPJYg8ecZ7v7Vzd8cj-104" value="" style="rounded=0;whiteSpace=wrap;html=1;" vertex="1" parent="hMvPJYg8ecZ7v7Vzd8cj-103">
          <mxGeometry x="2" width="209" height="359" as="geometry" />
        </mxCell>
        <mxCell id="hMvPJYg8ecZ7v7Vzd8cj-105" value="" style="endArrow=none;html=1;rounded=0;fontSize=12;startSize=8;endSize=8;curved=1;exitX=0;exitY=0.25;exitDx=0;exitDy=0;entryX=1;entryY=0.25;entryDx=0;entryDy=0;" edge="1" parent="hMvPJYg8ecZ7v7Vzd8cj-103" source="hMvPJYg8ecZ7v7Vzd8cj-104" target="hMvPJYg8ecZ7v7Vzd8cj-104">
          <mxGeometry width="50" height="50" relative="1" as="geometry">
            <mxPoint x="95" y="134" as="sourcePoint" />
            <mxPoint x="145" y="84" as="targetPoint" />
          </mxGeometry>
        </mxCell>
        <mxCell id="hMvPJYg8ecZ7v7Vzd8cj-106" value="ChiTietDonHang" style="text;html=1;align=center;verticalAlign=middle;whiteSpace=wrap;rounded=0;fontSize=16;" vertex="1" parent="hMvPJYg8ecZ7v7Vzd8cj-103">
          <mxGeometry x="82" y="24" width="60" height="30" as="geometry" />
        </mxCell>
        <mxCell id="hMvPJYg8ecZ7v7Vzd8cj-107" value="HoaDonID(FK)" style="text;html=1;align=center;verticalAlign=middle;whiteSpace=wrap;rounded=0;fontSize=16;" vertex="1" parent="hMvPJYg8ecZ7v7Vzd8cj-103">
          <mxGeometry y="90" width="207" height="33" as="geometry" />
        </mxCell>
        <mxCell id="hMvPJYg8ecZ7v7Vzd8cj-108" value="DonHangID(FK)" style="text;html=1;align=center;verticalAlign=middle;whiteSpace=wrap;rounded=0;fontSize=16;" vertex="1" parent="hMvPJYg8ecZ7v7Vzd8cj-103">
          <mxGeometry y="123" width="207" height="33" as="geometry" />
        </mxCell>
        <mxCell id="hMvPJYg8ecZ7v7Vzd8cj-109" value="SoLuong" style="text;html=1;align=center;verticalAlign=middle;whiteSpace=wrap;rounded=0;fontSize=16;" vertex="1" parent="hMvPJYg8ecZ7v7Vzd8cj-103">
          <mxGeometry x="4" y="156" width="207" height="33" as="geometry" />
        </mxCell>
        <mxCell id="hMvPJYg8ecZ7v7Vzd8cj-110" value="HoaDonID, MonAnID (PK)" style="text;html=1;align=center;verticalAlign=middle;whiteSpace=wrap;rounded=0;fontSize=16;" vertex="1" parent="hMvPJYg8ecZ7v7Vzd8cj-103">
          <mxGeometry x="3" y="189" width="207" height="33" as="geometry" />
        </mxCell>
      </root>
    </mxGraphModel>
  </diagram>
</mxfile>
